<svg width="1440" height="900" viewBox="0 0 1440 900" fill="none" xmlns="http://www.w3.org/2000/svg">
<mask id="mask0_103_446" style="mask-type:alpha" maskUnits="userSpaceOnUse" x="0" y="0" width="1440" height="900">
<rect width="1440" height="900" transform="matrix(1 0 0 -1 0 900)" fill="#C4C4C4"/>
</mask>
<g mask="url(#mask0_103_446)">
<path d="M1440 900H0V0H1440V900Z" fill="#FC441D"/>
<path d="M1563.47 1000.16L1500.69 937.967C1438.01 875.589 1312.45 751.21 1159.73 673.868C1007.02 596.526 826.922 566.6 655.88 520.995C484.729 475.578 322.522 414.671 202.85 280.091C83.1777 145.511 6.04086 -62.7421 -32.5276 -166.869L-71.0961 -270.995L215.744 -767.817L289.759 -725.085C363.773 -682.352 511.802 -596.888 659.831 -511.423C807.86 -425.959 955.889 -340.494 1103.92 -255.03C1251.95 -169.565 1399.98 -84.1004 1548 1.36414C1696.03 86.8287 1844.06 172.293 1918.08 215.026L1992.09 257.758L1563.47 1000.16Z" fill="#FF886F"/>
<path d="M1874.37 734.934L1827.84 682.129C1781.43 629.135 1688.37 523.524 1568.16 464.951C1447.95 406.378 1300.36 395.22 1161.83 368.383C1023.19 341.735 893.489 299.597 806.325 183.786C719.161 67.9742 674.533 -121.51 652.218 -216.253L629.904 -310.995L916.744 -807.817L974.505 -774.469C1032.26 -741.121 1147.79 -674.425 1263.31 -607.729C1378.83 -541.033 1494.35 -474.337 1609.87 -407.641C1725.39 -340.945 1840.91 -274.249 1956.43 -207.553C2071.95 -140.857 2187.47 -74.1608 2245.23 -40.8128L2302.99 -7.46484L1874.37 734.934Z" fill="#FFA592"/>
</g>
</svg>
